{"title":"The Monkey King 2 2016 BRRip x264 AAC-SSN","uid":15895843,"size":1459610454,"categoryP":"video","categoryS":"movies","magnet":"?xt=urn:btih:bfd23fe704a9b491003354cb17b03266b5457e0d&amp;dn=The+Monkey+King+2+2016+BRRip+x264+AAC-SSN&amp;tr=udp%3A%2F%2Ftracker.leechers-paradise.org%3A6969&amp;tr=udp%3A%2F%2Fzer0day.ch%3A1337&amp;tr=udp%3A%2F%2Fopen.demonii.com%3A1337&amp;tr=udp%3A%2F%2Ftracker.coppersurfer.tk%3A6969&amp;tr=udp%3A%2F%2Fexodus.desync.com%3A6969","seeders":127,"leechers":71,"uploader":"somespirit","files":3,"time":1474801175,"description":"IMDB:  http://www.imdb.com/title/tt4591310/\r\n\r\n Soutce: The.Monkey.King.2.2016.720p.BluRay.x264-WiKi\r\n\r\n\r\n Language: Chinese\r\n Subtitles: English\r\n\r\n\r\n General\r\n Complete name                            : The Monkey King 2 2016 BRRip x264 AAC-SSN.mkv\r\n Format                                   : Matroska\r\n Format version                           : Version 4 / Version 2\r\n File size                                : 1.36 GiB\r\n Duration                                 : 1h 59mn\r\n Overall bit rate                         : 1 633 Kbps\r\n Encoded date                             : UTC 2016-05-31 16:14:41\r\n Writing application                      : mkvmerge v8.6.1 ('Flying') 64bit\r\n Writing library                          : libebml v1.3.3 + libmatroska v1.4.4\r\n\r\n Video\r\n ID                                       : 1\r\n Format                                   : AVC\r\n Format/Info                              : Advanced Video Codec\r\n Format profile                           :   \r\n Format settings, CABAC                   : Yes\r\n Format settings, ReFrames                : 5 frames\r\n Codec ID                                 : V_MPEG4/ISO/AVC\r\n Duration                                 : 1h 59mn\r\n Bit rate                                 : 1 302 Kbps\r\n Width                                    : 900 pixels\r\n Height                                   : 382 pixels\r\n Display aspect ratio                     : 2.35:1\r\n Frame rate mode                          : Constant\r\n Frame rate                               : 23.976 (24000/1001) fps\r\n Color space                              : YUV\r\n Chroma subsampling                       : 4:2:0\r\n Bit depth                                : 8 bits\r\n Scan type                                : Progressive\r\n Bits/(Pixel*Frame)                       : 0.190\r\n Stream size                              : 1.08 GiB (80%)\r\n Writing library                          : x264 core 148 r2692 64f4e24\r\n Language                                 : English\r\n Default                                  : Yes\r\n Forced                                   : No\r\n\r\n Audio\r\n ID                                       : 2\r\n Format                                   : AAC\r\n Format/Info                              : Advanced Audio Codec\r\n Format profile                           : LC\r\n Codec ID                                 : A_AAC\r\n Duration                                 : 1h 59mn\r\n Bit rate                                 : 330 Kbps\r\n Channel(s)                               : 6 channels\r\n Channel positions                        : Front: L C R, Side: L R, LFE\r\n Sampling rate                            : 32.0 KHz\r\n Frame rate                               : 31.250 fps (1024 spf)\r\n Compression mode                         : Lossy\r\n Stream size                              : 281 MiB (20%)\r\n Language                                 : Chinese\r\n Default                                  : Yes\r\n Forced                                   : No","torrent":{"xt":"urn:btih:bfd23fe704a9b491003354cb17b03266b5457e0d","amp;dn":"The+Monkey+King+2+2016+BRRip+x264+AAC-SSN","amp;tr":["udp%3A%2F%2Ftracker.leechers-paradise.org%3A6969","udp%3A%2F%2Fzer0day.ch%3A1337","udp%3A%2F%2Fopen.demonii.com%3A1337","udp%3A%2F%2Ftracker.coppersurfer.tk%3A6969","udp%3A%2F%2Fexodus.desync.com%3A6969"],"infoHash":"bfd23fe704a9b491003354cb17b03266b5457e0d","infoHashBuffer":{"type":"Buffer","data":[191,210,63,231,4,169,180,145,0,51,84,203,23,176,50,102,181,69,126,13]},"announce":[],"urlList":[]}}